{"title":"Hollywood.Game.Night.S02E01.HDTV.XviD-AFG [P2PDL]","uid":9389700,"size":454389052,"categoryP":"video","categoryS":"tv_shows","magnet":"?xt=urn:btih:32aaea795963bb38e485241bedc0d202d44ca21b&amp;dn=Hollywood.Game.Night.S02E01.HDTV.XviD-AFG+%5BP2PDL%5D&amp;tr=udp%3A%2F%2Ftracker.openbittorrent.com%3A80&amp;tr=udp%3A%2F%2Fopen.demonii.com%3A1337&amp;tr=udp%3A%2F%2Ftracker.coppersurfer.tk%3A6969&amp;tr=udp%3A%2F%2Fexodus.desync.com%3A6969","seeders":3,"leechers":1,"uploader":"ValidusVyto","files":3,"time":1387864647,"description":"Hollywood.Game.Night.S02E01.HDTV.XviD-AFG\n\nInfo:\nGeneral\nComplete name                            : Hollywood.Game.Night.S02E01.HDTV.XviD-AFG/Hollywood.Game.Night.S02E01.HDTV.XviD-AFG.avi\nFormat                                   : AVI\nFormat/Info                              : Audio Video Interleave\nFile size                                : 433 MiB\nDuration                                 : 42mn 30s\nOverall bit rate mode                    : Variable\nOverall bit rate                         : 1 425 Kbps\n\nVideo\nID                                       : 0\nFormat                                   : MPEG-4 Visual\nFormat profile                           : Advanced Simple@L5\nFormat settings, BVOP                    : 2\nFormat settings, QPel                    : No\nFormat settings, GMC                     : No warppoints\nFormat settings, Matrix                  : Default (H.263)\nCodec ID                                 : XVID\nCodec ID/Hint                            : XviD\nDuration                                 : 42mn 30s\nBit rate                                 : 1 283 Kbps\nWidth                                    : 640 pixels\nHeight                                   : 360 pixels\nDisplay aspect ratio                     : 16:9\nFrame rate                               : 29.970 fps\nColor space                              : YUV\nChroma subsampling                       : 4:2:0\nBit depth                                : 8 bits\nScan type                                : Progressive\nCompression mode                         : Lossy\nBits/(Pixel*Frame)                       : 0.186\nStream size                              : 390 MiB (90%)\nWriting library                          : XviD 64\n\nAudio\nID                                       : 1\nFormat                                   : MPEG Audio\nFormat version                           : Version 1\nFormat profile                           : Layer 3\nMode                                     : Joint stereo\nMode extension                           : MS Stereo\nCodec ID                                 : 55\nCodec ID/Hint                            : MP3\nDuration                                 : 42mn 30s\nBit rate mode                            : Variable\nBit rate                                 : 128 Kbps\nChannel(s)                               : 2 channels\nSampling rate                            : 48.0 KHz\nCompression mode                         : Lossy\nStream size                              : 38.9 MiB (9%)\nAlignment                                : Aligned on interleaves\nInterleave, duration                     : 24 ms (0.72 video frame)\nInterleave, preload duration             : 178 ms\nTitle                                    : Hollywood.Game.Night.S02E01.HDTV.XviD-AFG_360p.audio\n\n\n","torrent":{"xt":"urn:btih:32aaea795963bb38e485241bedc0d202d44ca21b","amp;dn":"Hollywood.Game.Night.S02E01.HDTV.XviD-AFG+%5BP2PDL%5D","amp;tr":["udp%3A%2F%2Ftracker.openbittorrent.com%3A80","udp%3A%2F%2Fopen.demonii.com%3A1337","udp%3A%2F%2Ftracker.coppersurfer.tk%3A6969","udp%3A%2F%2Fexodus.desync.com%3A6969"],"infoHash":"32aaea795963bb38e485241bedc0d202d44ca21b","infoHashBuffer":{"type":"Buffer","data":[50,170,234,121,89,99,187,56,228,133,36,27,237,192,210,2,212,76,162,27]},"announce":[],"urlList":[]}}